{
	"asset":{
		"generator":"Khronos glTF Blender I/O v3.6.27",
		"version":"2.0"
	},
	"extensionsUsed":[
		"KHR_materials_specular",
		"KHR_materials_ior"
	],
	"scene":0,
	"scenes":[
		{
			"name":"Scene",
			"nodes":[
				0
			]
		}
	],
	"nodes":[
		{
			"mesh":0,
			"name":"card",
			"rotation":[
				0.70710688829422,
				0,
				0,
				0.7071066498756409
			],
			"scale":[
				0.21454793214797974,
				0.1959306299686432,
				0.33379387855529785
			]
		}
	],
	"materials":[
		{
			"doubleSided":true,
			"emissiveFactor":[
				1,
				1,
				1
			],
			"emissiveTexture":{
				"index":0
			},
			"extensions":{
				"KHR_materials_specular":{
					"specularColorFactor":[
						0.06143413575284935,
						0.06143413575284935,
						0.06143413575284935
					]
				},
				"KHR_materials_ior":{
					"ior":1.4500000476837158
				}
			},
			"name":"front",
			"normalTexture":{
				"index":1,
				"scale":1.100000023841858
			},
			"pbrMetallicRoughness":{
				"baseColorTexture":{
					"index":2
				},
				"metallicFactor":0.9362920522689819,
				"metallicRoughnessTexture":{
					"index":3
				}
			}
		},
		{
			"doubleSided":true,
			"emissiveFactor":[
				1,
				1,
				1
			],
			"emissiveTexture":{
				"index":4
			},
			"extensions":{
				"KHR_materials_specular":{
					"specularColorFactor":[
						0.06143413575284935,
						0.06143413575284935,
						0.06143413575284935
					]
				},
				"KHR_materials_ior":{
					"ior":1.4500000476837158
				}
			},
			"name":"back",
			"pbrMetallicRoughness":{
				"baseColorTexture":{
					"index":5
				},
				"metallicFactor":0.9362920522689819,
				"metallicRoughnessTexture":{
					"index":6
				}
			}
		}
	],
	"meshes":[
		{
			"name":"Plane",
			"primitives":[
				{
					"attributes":{
						"POSITION":0,
						"NORMAL":1,
						"TEXCOORD_0":2
					},
					"indices":3,
					"material":0
				},
				{
					"attributes":{
						"POSITION":4,
						"NORMAL":5,
						"TEXCOORD_0":6
					},
					"indices":7,
					"material":1
				}
			]
		}
	],
	"textures":[
		{
			"sampler":0,
			"source":0
		},
		{
			"sampler":1,
			"source":1
		},
		{
			"sampler":0,
			"source":0
		},
		{
			"sampler":1,
			"source":2
		},
		{
			"sampler":0,
			"source":3
		},
		{
			"sampler":0,
			"source":4
		},
		{
			"sampler":1,
			"source":2
		}
	],
	"images":[
		{
			"mimeType":"image/jpeg",
			"name":"front_base",
			"uri":"21262.jpg"
		},
		{
			"mimeType":"image/png",
			"name":"front_norm",
			"uri":"front_norm.png"
		},
		{
			"mimeType":"image/png",
			"name":"front_m",
			"uri":"front_m.png"
		},
		{
			"mimeType":"image/png",
			"name":"back_emissive",
			"uri":"back_e.png"
		},
		{
			"mimeType":"image/png",
			"name":"back_base",
			"uri":"21262.png"
		}
	],
	"accessors":[
		{
			"bufferView":0,
			"componentType":5126,
			"count":106,
			"max":[
				1,
				0,
				1
			],
			"min":[
				-1,
				-0.07555703073740005,
				-1
			],
			"type":"VEC3"
		},
		{
			"bufferView":1,
			"componentType":5126,
			"count":106,
			"type":"VEC3"
		},
		{
			"bufferView":2,
			"componentType":5126,
			"count":106,
			"type":"VEC2"
		},
		{
			"bufferView":3,
			"componentType":5123,
			"count":198,
			"type":"SCALAR"
		},
		{
			"bufferView":4,
			"componentType":5126,
			"count":121,
			"max":[
				1,
				0,
				1
			],
			"min":[
				-1,
				-0.07555703073740005,
				-0.9999999403953552
			],
			"type":"VEC3"
		},
		{
			"bufferView":5,
			"componentType":5126,
			"count":121,
			"type":"VEC3"
		},
		{
			"bufferView":6,
			"componentType":5126,
			"count":121,
			"type":"VEC2"
		},
		{
			"bufferView":7,
			"componentType":5123,
			"count":222,
			"type":"SCALAR"
		}
	],
	"bufferViews":[
		{
			"buffer":0,
			"byteLength":1272,
			"byteOffset":0,
			"target":34962
		},
		{
			"buffer":0,
			"byteLength":1272,
			"byteOffset":1272,
			"target":34962
		},
		{
			"buffer":0,
			"byteLength":848,
			"byteOffset":2544,
			"target":34962
		},
		{
			"buffer":0,
			"byteLength":396,
			"byteOffset":3392,
			"target":34963
		},
		{
			"buffer":0,
			"byteLength":1452,
			"byteOffset":3788,
			"target":34962
		},
		{
			"buffer":0,
			"byteLength":1452,
			"byteOffset":5240,
			"target":34962
		},
		{
			"buffer":0,
			"byteLength":968,
			"byteOffset":6692,
			"target":34962
		},
		{
			"buffer":0,
			"byteLength":444,
			"byteOffset":7660,
			"target":34963
		}
	],
	"samplers":[
		{
			"magFilter":9729,
			"minFilter":9987,
			"wrapS":33071,
			"wrapT":33071
		},
		{
			"magFilter":9729,
			"minFilter":9987
		}
	],
	"buffers":[
		{
			"byteLength":8104,
			"uri":"template.bin"
		}
	]
}
